<svg viewBox="0 0 83 83" xmlns="http://www.w3.org/2000/svg" xmlns:xlink="http://www.w3.org/1999/xlink" width="83.000000" height="83.000000" fill="none" customFrame="#000000">
	<defs>
		<clipPath id="clipPath_1">
			<rect width="49.000000" height="49.000000" x="17.000000" y="17.000000" fill="rgb(255,255,255)" />
		</clipPath>
	</defs>
	<rect id="Frame" width="83.000000" height="83.000000" x="0.000000" y="0.000000" />
	<rect id="Rectangle" width="83.000000" height="83.000000" x="0.000000" y="0.000000" rx="41.500000" fill="rgb(41,46,54)" />
	<g id="IMAGE" clip-path="url(#clipPath_1)" customFrame="url(#clipPath_1)">
		<rect id="IMAGE" width="49.000000" height="49.000000" x="17.000000" y="17.000000" />
		<path id="Vector" d="M25.117 26.8067C21.5545 30.792 19.5619 35.9245 19.5015 41.2582C19.3606 53.4554 29.3237 63.4588 41.5007 63.499C53.6778 63.5191 63.5 53.6567 63.5 41.4997C63.5 29.5239 53.9193 19.7621 42.0039 19.5005C41.9435 19.5005 41.863 19.5005 41.8026 19.5407C41.7423 19.5609 41.6819 19.6011 41.6416 19.6414C41.6014 19.6816 41.5611 19.742 41.5209 19.8024C41.5007 19.8628 41.4806 19.9232 41.4806 20.0037L41.4806 29.5843" fill-rule="nonzero" stroke="rgb(255,255,255)" stroke-linecap="round" stroke-linejoin="round" stroke-width="3.5" />
		<path id="Vector" d="M38.9244 44.0762L29.8671 31.1342C29.7262 30.9531 29.6859 30.7317 29.706 30.5103C29.7262 30.2889 29.8067 30.0876 29.9677 29.9266C30.1287 29.7656 30.33 29.6851 30.5514 29.6649C30.7527 29.6448 30.9741 29.7052 31.1552 29.826L44.0971 38.8833C44.8821 39.4469 45.4255 40.3123 45.5866 41.2785C45.7476 42.2446 45.5262 43.2308 44.9626 44.0359C44.399 44.841 43.5537 45.3845 42.5876 45.5656C41.6215 45.7467 40.6352 45.5253 39.8301 44.9819C39.488 44.7404 39.1659 44.4385 38.9244 44.0762Z" fill="rgb(255,255,255)" fill-rule="nonzero" />
	</g>
</svg>
